<mxfile host="app.diagrams.net" agent="Mozilla/5.0 (Macintosh; Intel Mac OS X 10_15_7) AppleWebKit/537.36 (KHTML, like Gecko) Chrome/134.0.0.0 Safari/537.36" version="26.1.1">
  <diagram name="Page-1" id="cwnC-bsThbJ_BEjy0n1V">
    <mxGraphModel dx="1706" dy="714" grid="1" gridSize="10" guides="1" tooltips="1" connect="1" arrows="1" fold="1" page="1" pageScale="1" pageWidth="827" pageHeight="583" math="0" shadow="0">
      <root>
        <mxCell id="0" />
        <mxCell id="1" parent="0" />
        <mxCell id="KxLatgLH1o8LrLsqq7AK-2" value="&lt;p style=&quot;margin:0px;margin-top:4px;text-align:center;&quot;&gt;&lt;i&gt;&amp;lt;&amp;lt;Interface&amp;gt;&amp;gt;&lt;/i&gt;&lt;br&gt;&lt;b&gt;StackInterface&lt;/b&gt;&lt;/p&gt;&lt;hr size=&quot;1&quot; style=&quot;border-style:solid;&quot;&gt;&lt;p style=&quot;margin:0px;margin-left:4px;&quot;&gt;+ push(Patient)&lt;br&gt;+ pop() : Object&lt;/p&gt;&lt;p style=&quot;margin:0px;margin-left:4px;&quot;&gt;+ isEmpty() : boolean&lt;/p&gt;&lt;p style=&quot;margin:0px;margin-left:4px;&quot;&gt;+ isFull() : boolean&lt;/p&gt;&lt;p style=&quot;margin:0px;margin-left:4px;&quot;&gt;+ size() : int&lt;/p&gt;" style="verticalAlign=top;align=left;overflow=fill;html=1;whiteSpace=wrap;" parent="1" vertex="1">
          <mxGeometry x="80" y="90" width="190" height="140" as="geometry" />
        </mxCell>
        <mxCell id="KxLatgLH1o8LrLsqq7AK-7" value="&lt;b&gt;BloodTestSchedulerGUI&lt;/b&gt;" style="swimlane;fontStyle=0;childLayout=stackLayout;horizontal=1;startSize=26;fillColor=none;horizontalStack=0;resizeParent=1;resizeParentMax=0;resizeLast=0;collapsible=1;marginBottom=0;whiteSpace=wrap;html=1;" parent="1" vertex="1">
          <mxGeometry x="301" y="150" width="215" height="316" as="geometry" />
        </mxCell>
        <mxCell id="KxLatgLH1o8LrLsqq7AK-8" value="allPatients : ArrayList&amp;lt;Patient&amp;gt;" style="text;strokeColor=none;fillColor=none;align=left;verticalAlign=top;spacingLeft=4;spacingRight=4;overflow=hidden;rotatable=0;points=[[0,0.5],[1,0.5]];portConstraint=eastwest;whiteSpace=wrap;html=1;" parent="KxLatgLH1o8LrLsqq7AK-7" vertex="1">
          <mxGeometry y="26" width="215" height="26" as="geometry" />
        </mxCell>
        <mxCell id="KxLatgLH1o8LrLsqq7AK-9" value="priorityQueue : PQPatient" style="text;strokeColor=none;fillColor=none;align=left;verticalAlign=top;spacingLeft=4;spacingRight=4;overflow=hidden;rotatable=0;points=[[0,0.5],[1,0.5]];portConstraint=eastwest;whiteSpace=wrap;html=1;" parent="KxLatgLH1o8LrLsqq7AK-7" vertex="1">
          <mxGeometry y="52" width="215" height="26" as="geometry" />
        </mxCell>
        <mxCell id="KxLatgLH1o8LrLsqq7AK-10" value="theNoShowers : StackNoShows" style="text;strokeColor=none;fillColor=none;align=left;verticalAlign=top;spacingLeft=4;spacingRight=4;overflow=hidden;rotatable=0;points=[[0,0.5],[1,0.5]];portConstraint=eastwest;whiteSpace=wrap;html=1;" parent="KxLatgLH1o8LrLsqq7AK-7" vertex="1">
          <mxGeometry y="78" width="215" height="22" as="geometry" />
        </mxCell>
        <mxCell id="FDG9y0_pB1tH5YfJSZ4T-20" value="" style="line;strokeWidth=1;fillColor=none;align=left;verticalAlign=middle;spacingTop=-1;spacingLeft=3;spacingRight=3;rotatable=0;labelPosition=right;points=[];portConstraint=eastwest;strokeColor=inherit;" parent="KxLatgLH1o8LrLsqq7AK-7" vertex="1">
          <mxGeometry y="100" width="215" height="8" as="geometry" />
        </mxCell>
        <mxCell id="FDG9y0_pB1tH5YfJSZ4T-24" value="- loadPatientHistory()" style="text;strokeColor=none;fillColor=none;align=left;verticalAlign=top;spacingLeft=4;spacingRight=4;overflow=hidden;rotatable=0;points=[[0,0.5],[1,0.5]];portConstraint=eastwest;whiteSpace=wrap;html=1;" parent="KxLatgLH1o8LrLsqq7AK-7" vertex="1">
          <mxGeometry y="108" width="215" height="26" as="geometry" />
        </mxCell>
        <mxCell id="FDG9y0_pB1tH5YfJSZ4T-25" value="- loadNoShowers ()" style="text;strokeColor=none;fillColor=none;align=left;verticalAlign=top;spacingLeft=4;spacingRight=4;overflow=hidden;rotatable=0;points=[[0,0.5],[1,0.5]];portConstraint=eastwest;whiteSpace=wrap;html=1;" parent="KxLatgLH1o8LrLsqq7AK-7" vertex="1">
          <mxGeometry y="134" width="215" height="26" as="geometry" />
        </mxCell>
        <mxCell id="FDG9y0_pB1tH5YfJSZ4T-22" value="- loadPatientPriority()" style="text;strokeColor=none;fillColor=none;align=left;verticalAlign=top;spacingLeft=4;spacingRight=4;overflow=hidden;rotatable=0;points=[[0,0.5],[1,0.5]];portConstraint=eastwest;whiteSpace=wrap;html=1;" parent="KxLatgLH1o8LrLsqq7AK-7" vertex="1">
          <mxGeometry y="160" width="215" height="26" as="geometry" />
        </mxCell>
        <mxCell id="FDG9y0_pB1tH5YfJSZ4T-18" value="- addPatient(): void&lt;span style=&quot;white-space: pre;&quot;&gt;&#x9;&lt;/span&gt;&lt;div&gt;&lt;br&gt;&lt;/div&gt;" style="text;strokeColor=none;fillColor=none;align=left;verticalAlign=top;spacingLeft=4;spacingRight=4;overflow=hidden;rotatable=0;points=[[0,0.5],[1,0.5]];portConstraint=eastwest;whiteSpace=wrap;html=1;" parent="KxLatgLH1o8LrLsqq7AK-7" vertex="1">
          <mxGeometry y="186" width="215" height="26" as="geometry" />
        </mxCell>
        <mxCell id="FDG9y0_pB1tH5YfJSZ4T-19" value="- displayQueue(): void" style="text;strokeColor=none;fillColor=none;align=left;verticalAlign=top;spacingLeft=4;spacingRight=4;overflow=hidden;rotatable=0;points=[[0,0.5],[1,0.5]];portConstraint=eastwest;whiteSpace=wrap;html=1;" parent="KxLatgLH1o8LrLsqq7AK-7" vertex="1">
          <mxGeometry y="212" width="215" height="26" as="geometry" />
        </mxCell>
        <mxCell id="FDG9y0_pB1tH5YfJSZ4T-21" value="- addNoShowPatient():void" style="text;strokeColor=none;fillColor=none;align=left;verticalAlign=top;spacingLeft=4;spacingRight=4;overflow=hidden;rotatable=0;points=[[0,0.5],[1,0.5]];portConstraint=eastwest;whiteSpace=wrap;html=1;" parent="KxLatgLH1o8LrLsqq7AK-7" vertex="1">
          <mxGeometry y="238" width="215" height="26" as="geometry" />
        </mxCell>
        <mxCell id="FDG9y0_pB1tH5YfJSZ4T-23" value="- clearFields() : void" style="text;strokeColor=none;fillColor=none;align=left;verticalAlign=top;spacingLeft=4;spacingRight=4;overflow=hidden;rotatable=0;points=[[0,0.5],[1,0.5]];portConstraint=eastwest;whiteSpace=wrap;html=1;" parent="KxLatgLH1o8LrLsqq7AK-7" vertex="1">
          <mxGeometry y="264" width="215" height="26" as="geometry" />
        </mxCell>
        <mxCell id="FDG9y0_pB1tH5YfJSZ4T-17" value="- peekNextPatient():void" style="text;strokeColor=none;fillColor=none;align=left;verticalAlign=top;spacingLeft=4;spacingRight=4;overflow=hidden;rotatable=0;points=[[0,0.5],[1,0.5]];portConstraint=eastwest;whiteSpace=wrap;html=1;" parent="KxLatgLH1o8LrLsqq7AK-7" vertex="1">
          <mxGeometry y="290" width="215" height="26" as="geometry" />
        </mxCell>
        <mxCell id="KxLatgLH1o8LrLsqq7AK-19" value="&lt;b&gt;PQPatient&lt;/b&gt;" style="swimlane;fontStyle=0;childLayout=stackLayout;horizontal=1;startSize=26;fillColor=none;horizontalStack=0;resizeParent=1;resizeParentMax=0;resizeLast=0;collapsible=1;marginBottom=0;whiteSpace=wrap;html=1;" parent="1" vertex="1">
          <mxGeometry x="560" y="260" width="210" height="242" as="geometry" />
        </mxCell>
        <mxCell id="KxLatgLH1o8LrLsqq7AK-20" value="+ patientList : ArrayList&amp;lt;Patient&amp;gt;" style="text;strokeColor=none;fillColor=none;align=left;verticalAlign=top;spacingLeft=4;spacingRight=4;overflow=hidden;rotatable=0;points=[[0,0.5],[1,0.5]];portConstraint=eastwest;whiteSpace=wrap;html=1;" parent="KxLatgLH1o8LrLsqq7AK-19" vertex="1">
          <mxGeometry y="26" width="210" height="26" as="geometry" />
        </mxCell>
        <mxCell id="FDG9y0_pB1tH5YfJSZ4T-47" value="" style="line;strokeWidth=1;fillColor=none;align=left;verticalAlign=middle;spacingTop=-1;spacingLeft=3;spacingRight=3;rotatable=0;labelPosition=right;points=[];portConstraint=eastwest;strokeColor=inherit;" parent="KxLatgLH1o8LrLsqq7AK-19" vertex="1">
          <mxGeometry y="52" width="210" height="8" as="geometry" />
        </mxCell>
        <mxCell id="KxLatgLH1o8LrLsqq7AK-21" value="+ add (priority, age, status, Patient)" style="text;strokeColor=none;fillColor=none;align=left;verticalAlign=top;spacingLeft=4;spacingRight=4;overflow=hidden;rotatable=0;points=[[0,0.5],[1,0.5]];portConstraint=eastwest;whiteSpace=wrap;html=1;" parent="KxLatgLH1o8LrLsqq7AK-19" vertex="1">
          <mxGeometry y="60" width="210" height="26" as="geometry" />
        </mxCell>
        <mxCell id="KxLatgLH1o8LrLsqq7AK-22" value="+ poll(): Patient&lt;div&gt;&lt;br&gt;&lt;/div&gt;" style="text;strokeColor=none;fillColor=none;align=left;verticalAlign=top;spacingLeft=4;spacingRight=4;overflow=hidden;rotatable=0;points=[[0,0.5],[1,0.5]];portConstraint=eastwest;whiteSpace=wrap;html=1;" parent="KxLatgLH1o8LrLsqq7AK-19" vertex="1">
          <mxGeometry y="86" width="210" height="26" as="geometry" />
        </mxCell>
        <mxCell id="FDG9y0_pB1tH5YfJSZ4T-48" value="+ peek(): Patient" style="text;strokeColor=none;fillColor=none;align=left;verticalAlign=top;spacingLeft=4;spacingRight=4;overflow=hidden;rotatable=0;points=[[0,0.5],[1,0.5]];portConstraint=eastwest;whiteSpace=wrap;html=1;" parent="KxLatgLH1o8LrLsqq7AK-19" vertex="1">
          <mxGeometry y="112" width="210" height="26" as="geometry" />
        </mxCell>
        <mxCell id="FDG9y0_pB1tH5YfJSZ4T-49" value="+ displayQ() : String" style="text;strokeColor=none;fillColor=none;align=left;verticalAlign=top;spacingLeft=4;spacingRight=4;overflow=hidden;rotatable=0;points=[[0,0.5],[1,0.5]];portConstraint=eastwest;whiteSpace=wrap;html=1;" parent="KxLatgLH1o8LrLsqq7AK-19" vertex="1">
          <mxGeometry y="138" width="210" height="26" as="geometry" />
        </mxCell>
        <mxCell id="FDG9y0_pB1tH5YfJSZ4T-50" value="+ findPriorityPos (int,int,String) : int" style="text;strokeColor=none;fillColor=none;align=left;verticalAlign=top;spacingLeft=4;spacingRight=4;overflow=hidden;rotatable=0;points=[[0,0.5],[1,0.5]];portConstraint=eastwest;whiteSpace=wrap;html=1;" parent="KxLatgLH1o8LrLsqq7AK-19" vertex="1">
          <mxGeometry y="164" width="210" height="26" as="geometry" />
        </mxCell>
        <mxCell id="FDG9y0_pB1tH5YfJSZ4T-51" value="+size() : int" style="text;strokeColor=none;fillColor=none;align=left;verticalAlign=top;spacingLeft=4;spacingRight=4;overflow=hidden;rotatable=0;points=[[0,0.5],[1,0.5]];portConstraint=eastwest;whiteSpace=wrap;html=1;" parent="KxLatgLH1o8LrLsqq7AK-19" vertex="1">
          <mxGeometry y="190" width="210" height="26" as="geometry" />
        </mxCell>
        <mxCell id="FDG9y0_pB1tH5YfJSZ4T-52" value="+ isEmpty() : boolean" style="text;strokeColor=none;fillColor=none;align=left;verticalAlign=top;spacingLeft=4;spacingRight=4;overflow=hidden;rotatable=0;points=[[0,0.5],[1,0.5]];portConstraint=eastwest;whiteSpace=wrap;html=1;" parent="KxLatgLH1o8LrLsqq7AK-19" vertex="1">
          <mxGeometry y="216" width="210" height="26" as="geometry" />
        </mxCell>
        <mxCell id="FDG9y0_pB1tH5YfJSZ4T-3" value="bloodtestscheduler" style="shape=folder;fontStyle=1;spacingTop=10;tabWidth=40;tabHeight=14;tabPosition=left;html=1;whiteSpace=wrap;" parent="1" vertex="1">
          <mxGeometry x="120" y="20" width="120" height="49" as="geometry" />
        </mxCell>
        <mxCell id="FDG9y0_pB1tH5YfJSZ4T-11" value="BloodTestSchedulerApp" style="swimlane;fontStyle=1;align=center;verticalAlign=top;childLayout=stackLayout;horizontal=1;startSize=26;horizontalStack=0;resizeParent=1;resizeParentMax=0;resizeLast=0;collapsible=1;marginBottom=0;whiteSpace=wrap;html=1;" parent="1" vertex="1">
          <mxGeometry x="301" y="10" width="220" height="112" as="geometry" />
        </mxCell>
        <mxCell id="FDG9y0_pB1tH5YfJSZ4T-12" value="+ myGUI : BloodTestSchedulerGUI" style="text;strokeColor=none;fillColor=none;align=left;verticalAlign=top;spacingLeft=4;spacingRight=4;overflow=hidden;rotatable=0;points=[[0,0.5],[1,0.5]];portConstraint=eastwest;whiteSpace=wrap;html=1;" parent="FDG9y0_pB1tH5YfJSZ4T-11" vertex="1">
          <mxGeometry y="26" width="220" height="26" as="geometry" />
        </mxCell>
        <mxCell id="FDG9y0_pB1tH5YfJSZ4T-13" value="" style="line;strokeWidth=1;fillColor=none;align=left;verticalAlign=middle;spacingTop=-1;spacingLeft=3;spacingRight=3;rotatable=0;labelPosition=right;points=[];portConstraint=eastwest;strokeColor=inherit;" parent="FDG9y0_pB1tH5YfJSZ4T-11" vertex="1">
          <mxGeometry y="52" width="220" height="8" as="geometry" />
        </mxCell>
        <mxCell id="FDG9y0_pB1tH5YfJSZ4T-14" value="+ main()" style="text;strokeColor=none;fillColor=none;align=left;verticalAlign=top;spacingLeft=4;spacingRight=4;overflow=hidden;rotatable=0;points=[[0,0.5],[1,0.5]];portConstraint=eastwest;whiteSpace=wrap;html=1;" parent="FDG9y0_pB1tH5YfJSZ4T-11" vertex="1">
          <mxGeometry y="60" width="220" height="26" as="geometry" />
        </mxCell>
        <mxCell id="FDG9y0_pB1tH5YfJSZ4T-15" value="+ setVisible() : boolean" style="text;strokeColor=none;fillColor=none;align=left;verticalAlign=top;spacingLeft=4;spacingRight=4;overflow=hidden;rotatable=0;points=[[0,0.5],[1,0.5]];portConstraint=eastwest;whiteSpace=wrap;html=1;" parent="FDG9y0_pB1tH5YfJSZ4T-11" vertex="1">
          <mxGeometry y="86" width="220" height="26" as="geometry" />
        </mxCell>
        <mxCell id="FDG9y0_pB1tH5YfJSZ4T-34" value="&lt;b&gt;StackNoShows&lt;/b&gt;" style="swimlane;fontStyle=0;childLayout=stackLayout;horizontal=1;startSize=26;fillColor=none;horizontalStack=0;resizeParent=1;resizeParentMax=0;resizeLast=0;collapsible=1;marginBottom=0;whiteSpace=wrap;html=1;" parent="1" vertex="1">
          <mxGeometry x="80" y="260" width="190" height="217" as="geometry" />
        </mxCell>
        <mxCell id="FDG9y0_pB1tH5YfJSZ4T-37" value="+ noShowers : ArrayList&amp;lt;Patient&amp;gt;" style="text;strokeColor=none;fillColor=none;align=left;verticalAlign=top;spacingLeft=4;spacingRight=4;overflow=hidden;rotatable=0;points=[[0,0.5],[1,0.5]];portConstraint=eastwest;whiteSpace=wrap;html=1;" parent="FDG9y0_pB1tH5YfJSZ4T-34" vertex="1">
          <mxGeometry y="26" width="190" height="26" as="geometry" />
        </mxCell>
        <mxCell id="FDG9y0_pB1tH5YfJSZ4T-38" value="" style="line;strokeWidth=1;fillColor=none;align=left;verticalAlign=middle;spacingTop=-1;spacingLeft=3;spacingRight=3;rotatable=0;labelPosition=right;points=[];portConstraint=eastwest;strokeColor=inherit;" parent="FDG9y0_pB1tH5YfJSZ4T-34" vertex="1">
          <mxGeometry y="52" width="190" height="8" as="geometry" />
        </mxCell>
        <mxCell id="FDG9y0_pB1tH5YfJSZ4T-39" value="+ StackNoShows()" style="text;strokeColor=none;fillColor=none;align=left;verticalAlign=top;spacingLeft=4;spacingRight=4;overflow=hidden;rotatable=0;points=[[0,0.5],[1,0.5]];portConstraint=eastwest;whiteSpace=wrap;html=1;" parent="FDG9y0_pB1tH5YfJSZ4T-34" vertex="1">
          <mxGeometry y="60" width="190" height="26" as="geometry" />
        </mxCell>
        <mxCell id="FDG9y0_pB1tH5YfJSZ4T-40" value="+ push(Patient)" style="text;strokeColor=none;fillColor=none;align=left;verticalAlign=top;spacingLeft=4;spacingRight=4;overflow=hidden;rotatable=0;points=[[0,0.5],[1,0.5]];portConstraint=eastwest;whiteSpace=wrap;html=1;" parent="FDG9y0_pB1tH5YfJSZ4T-34" vertex="1">
          <mxGeometry y="86" width="190" height="27" as="geometry" />
        </mxCell>
        <mxCell id="FDG9y0_pB1tH5YfJSZ4T-44" value="+ pop(): Patient" style="text;strokeColor=none;fillColor=none;align=left;verticalAlign=top;spacingLeft=4;spacingRight=4;overflow=hidden;rotatable=0;points=[[0,0.5],[1,0.5]];portConstraint=eastwest;whiteSpace=wrap;html=1;" parent="FDG9y0_pB1tH5YfJSZ4T-34" vertex="1">
          <mxGeometry y="113" width="190" height="26" as="geometry" />
        </mxCell>
        <mxCell id="FDG9y0_pB1tH5YfJSZ4T-45" value="+ lastFiveNoShows(int) : String" style="text;strokeColor=none;fillColor=none;align=left;verticalAlign=top;spacingLeft=4;spacingRight=4;overflow=hidden;rotatable=0;points=[[0,0.5],[1,0.5]];portConstraint=eastwest;whiteSpace=wrap;html=1;" parent="FDG9y0_pB1tH5YfJSZ4T-34" vertex="1">
          <mxGeometry y="139" width="190" height="26" as="geometry" />
        </mxCell>
        <mxCell id="FDG9y0_pB1tH5YfJSZ4T-43" value="+ emptyStack(): String" style="text;strokeColor=none;fillColor=none;align=left;verticalAlign=top;spacingLeft=4;spacingRight=4;overflow=hidden;rotatable=0;points=[[0,0.5],[1,0.5]];portConstraint=eastwest;whiteSpace=wrap;html=1;" parent="FDG9y0_pB1tH5YfJSZ4T-34" vertex="1">
          <mxGeometry y="165" width="190" height="26" as="geometry" />
        </mxCell>
        <mxCell id="FDG9y0_pB1tH5YfJSZ4T-46" value="+ size(): int" style="text;strokeColor=none;fillColor=none;align=left;verticalAlign=top;spacingLeft=4;spacingRight=4;overflow=hidden;rotatable=0;points=[[0,0.5],[1,0.5]];portConstraint=eastwest;whiteSpace=wrap;html=1;" parent="FDG9y0_pB1tH5YfJSZ4T-34" vertex="1">
          <mxGeometry y="191" width="190" height="26" as="geometry" />
        </mxCell>
        <mxCell id="FDG9y0_pB1tH5YfJSZ4T-53" value="&lt;p style=&quot;margin:0px;margin-top:4px;text-align:center;&quot;&gt;&lt;i&gt;&amp;lt;&amp;lt;Interface&amp;gt;&amp;gt;&lt;/i&gt;&lt;br&gt;&lt;b&gt;PQInterface&lt;/b&gt;&lt;/p&gt;&lt;hr size=&quot;1&quot; style=&quot;border-style:solid;&quot;&gt;&lt;p style=&quot;margin:0px;margin-left:4px;&quot;&gt;+ add(priority, age, status, element)&lt;br&gt;+ poll(): Patient&lt;/p&gt;&lt;p style=&quot;margin:0px;margin-left:4px;&quot;&gt;+ peek(): Patient&lt;/p&gt;&lt;p style=&quot;margin:0px;margin-left:4px;&quot;&gt;+ displayQ(): String&lt;/p&gt;&lt;p style=&quot;margin:0px;margin-left:4px;&quot;&gt;+isEmpty(): boolean&lt;/p&gt;" style="verticalAlign=top;align=left;overflow=fill;html=1;whiteSpace=wrap;" parent="1" vertex="1">
          <mxGeometry x="560" y="90" width="200" height="140" as="geometry" />
        </mxCell>
        <mxCell id="FDG9y0_pB1tH5YfJSZ4T-55" value="&lt;p style=&quot;margin:0px;margin-top:4px;text-align:center;&quot;&gt;&lt;b&gt;Patient&lt;/b&gt;&lt;/p&gt;&lt;hr size=&quot;1&quot; style=&quot;border-style:solid;&quot;&gt;&lt;p style=&quot;margin:0px;margin-left:4px;&quot;&gt;- name :String&lt;/p&gt;&lt;p style=&quot;margin:0px;margin-left:4px;&quot;&gt;- age : int&lt;/p&gt;&lt;p style=&quot;margin:0px;margin-left:4px;&quot;&gt;- priority : int&lt;/p&gt;&lt;p style=&quot;margin:0px;margin-left:4px;&quot;&gt;- gpName : String&lt;/p&gt;&lt;p style=&quot;margin:0px;margin-left:4px;&quot;&gt;- hospitalWard : String&lt;/p&gt;&lt;hr size=&quot;1&quot; style=&quot;border-style:solid;&quot;&gt;&lt;p style=&quot;margin:0px;margin-left:4px;&quot;&gt;+ Patient(name,age,priority,hospitalWard,gpName)&lt;/p&gt;&lt;p style=&quot;margin:0px;margin-left:4px;&quot;&gt;+ getName() : String&lt;/p&gt;&lt;p style=&quot;margin:0px;margin-left:4px;&quot;&gt;+ getPriority() : int&lt;/p&gt;&lt;p style=&quot;margin:0px;margin-left:4px;&quot;&gt;+ printPatient() :&amp;nbsp; String&lt;/p&gt;&lt;p style=&quot;margin:0px;margin-left:4px;&quot;&gt;+ basicPrint() : String&lt;/p&gt;&lt;p style=&quot;margin:0px;margin-left:4px;&quot;&gt;&lt;br&gt;&lt;/p&gt;" style="verticalAlign=top;align=left;overflow=fill;html=1;whiteSpace=wrap;" parent="1" vertex="1">
          <mxGeometry x="260" y="510" width="289" height="197" as="geometry" />
        </mxCell>
        <mxCell id="FDG9y0_pB1tH5YfJSZ4T-56" value="" style="endArrow=block;startArrow=none;endFill=0;startFill=0;endSize=8;html=1;verticalAlign=bottom;dashed=1;labelBackgroundColor=none;rounded=0;entryX=0.5;entryY=1;entryDx=0;entryDy=0;exitX=0.5;exitY=0;exitDx=0;exitDy=0;" parent="1" source="FDG9y0_pB1tH5YfJSZ4T-34" target="KxLatgLH1o8LrLsqq7AK-2" edge="1">
          <mxGeometry width="160" relative="1" as="geometry">
            <mxPoint x="10" y="240" as="sourcePoint" />
            <mxPoint x="170" y="240" as="targetPoint" />
            <Array as="points">
              <mxPoint x="175" y="250" />
            </Array>
          </mxGeometry>
        </mxCell>
        <mxCell id="R2HTFKqdTSLrv9cYbz0Z-1" value="" style="endArrow=block;startArrow=none;endFill=0;startFill=0;endSize=8;html=1;verticalAlign=bottom;dashed=1;labelBackgroundColor=none;rounded=0;entryX=0.5;entryY=1;entryDx=0;entryDy=0;exitX=0.5;exitY=0;exitDx=0;exitDy=0;" edge="1" parent="1">
          <mxGeometry width="160" relative="1" as="geometry">
            <mxPoint x="659.5" y="260" as="sourcePoint" />
            <mxPoint x="659.5" y="230" as="targetPoint" />
            <Array as="points">
              <mxPoint x="659.5" y="250" />
              <mxPoint x="659.5" y="240" />
            </Array>
          </mxGeometry>
        </mxCell>
        <mxCell id="R2HTFKqdTSLrv9cYbz0Z-3" value="" style="endArrow=none;dashed=1;html=1;rounded=0;entryX=0.491;entryY=1;entryDx=0;entryDy=0;entryPerimeter=0;exitX=0.5;exitY=0;exitDx=0;exitDy=0;" edge="1" parent="1" source="KxLatgLH1o8LrLsqq7AK-7" target="FDG9y0_pB1tH5YfJSZ4T-15">
          <mxGeometry width="50" height="50" relative="1" as="geometry">
            <mxPoint x="400" y="160" as="sourcePoint" />
            <mxPoint x="410" y="130" as="targetPoint" />
          </mxGeometry>
        </mxCell>
        <mxCell id="R2HTFKqdTSLrv9cYbz0Z-4" value="" style="endArrow=classic;html=1;rounded=0;entryX=0.007;entryY=0.086;entryDx=0;entryDy=0;entryPerimeter=0;exitX=0.453;exitY=1.154;exitDx=0;exitDy=0;exitPerimeter=0;" edge="1" parent="1" source="FDG9y0_pB1tH5YfJSZ4T-46" target="FDG9y0_pB1tH5YfJSZ4T-55">
          <mxGeometry width="50" height="50" relative="1" as="geometry">
            <mxPoint x="130" y="570" as="sourcePoint" />
            <mxPoint x="180" y="520" as="targetPoint" />
            <Array as="points">
              <mxPoint x="166" y="527" />
            </Array>
          </mxGeometry>
        </mxCell>
        <mxCell id="R2HTFKqdTSLrv9cYbz0Z-5" value="" style="endArrow=classic;html=1;rounded=0;entryX=0.993;entryY=0.102;entryDx=0;entryDy=0;entryPerimeter=0;exitX=0.524;exitY=1.038;exitDx=0;exitDy=0;exitPerimeter=0;" edge="1" parent="1" source="FDG9y0_pB1tH5YfJSZ4T-52" target="FDG9y0_pB1tH5YfJSZ4T-55">
          <mxGeometry width="50" height="50" relative="1" as="geometry">
            <mxPoint x="590" y="510" as="sourcePoint" />
            <mxPoint x="686" y="539" as="targetPoint" />
            <Array as="points">
              <mxPoint x="670" y="530" />
            </Array>
          </mxGeometry>
        </mxCell>
        <mxCell id="R2HTFKqdTSLrv9cYbz0Z-6" value="" style="endArrow=classic;html=1;rounded=0;entryX=0.5;entryY=0;entryDx=0;entryDy=0;" edge="1" parent="1" target="FDG9y0_pB1tH5YfJSZ4T-55">
          <mxGeometry width="50" height="50" relative="1" as="geometry">
            <mxPoint x="405" y="469" as="sourcePoint" />
            <mxPoint x="420" y="470" as="targetPoint" />
          </mxGeometry>
        </mxCell>
      </root>
    </mxGraphModel>
  </diagram>
</mxfile>
